# xmcd
#
# Track frame offsets: 
#        150
#        24118
#        46796
#        68259
#        91875
#        120279
#        139309
#        156437
#        172720
#        199612
#        224221
#        248255
#        267355
#        290194
#
# Disc length: 4186 seconds
#
# Revision: 0
# Processed by: cddbd v1.5.2PL0 Copyright (c) Steve Scherf et al.
# Submitted via: ExactAudioCopy v1.0b3
#
DISCID=ba10580e
DTITLE=Hong Truc - Cay Dang Bo Moi
DYEAR=2002
DGENRE=
TTITLE0=Cay dang bo moi
TTITLE1=Kho qua
TTITLE2=Thuong ve mien Trung
TTITLE3=Nguoi tinh
TTITLE4=Hai vi sao lac
TTITLE5=Doi bo
TTITLE6=Hong Truc, Chung Tu Luu - Mot lan dang do
TTITLE7=Xuan ve tren dat Me
TTITLE8=Hong Truc, Chung Tu Luu - Muoi nam tinh cu
TTITLE9=Tam su tuoi tinh yeu
TTITLE10=hoa tau - Cay dang bo moi
TTITLE11=hoa tau - Doi bo
TTITLE12=hoa tau - Kho qua
TTITLE13=hoa tau - Nguoi tinh
EXTD=
EXTT0=
EXTT1=
EXTT2=
EXTT3=
EXTT4=
EXTT5=
EXTT6=
EXTT7=
EXTT8=
EXTT9=
EXTT10=
EXTT11=
EXTT12=
EXTT13=
PLAYORDER=
